<svg width="93" height="24" viewBox="0 0 93 24" fill="none" xmlns="http://www.w3.org/2000/svg">
<path d="M6.0868 18.2364C5.08875 18.2364 4.19576 18.0657 3.40782 17.7242C2.63302 17.3828 2.0158 16.8838 1.55617 16.2271C1.10968 15.5705 0.879862 14.776 0.866729 13.8436H3.6836C3.69673 14.2507 3.80179 14.6184 3.99877 14.9467C4.19576 15.2751 4.46497 15.5377 4.80641 15.7347C5.16098 15.9185 5.58121 16.0105 6.06711 16.0105C6.48734 16.0105 6.84848 15.9448 7.15052 15.8135C7.46569 15.669 7.70864 15.472 7.87936 15.2225C8.05008 14.973 8.13544 14.6775 8.13544 14.3361C8.13544 13.929 8.03695 13.5941 7.83996 13.3315C7.65611 13.0688 7.39346 12.8456 7.05203 12.6617C6.71059 12.4779 6.31662 12.3137 5.87012 12.1693C5.43676 12.0117 4.97713 11.8541 4.49123 11.6965C3.41439 11.3419 2.58706 10.8692 2.00924 10.2782C1.44455 9.68728 1.16221 8.90591 1.16221 7.93412C1.16221 7.10679 1.35919 6.39765 1.75316 5.80669C2.16026 5.21574 2.71838 4.76268 3.42752 4.4475C4.13666 4.13233 4.9443 3.97474 5.85042 3.97474C6.78281 3.97474 7.59701 4.1389 8.29302 4.4672C9.00217 4.78238 9.56029 5.24201 9.96739 5.84609C10.3876 6.45017 10.6043 7.15932 10.6174 7.97352H7.78087C7.76773 7.67147 7.67581 7.38913 7.50509 7.12649C7.3475 6.85071 7.12425 6.63403 6.83534 6.47644C6.54643 6.30572 6.20499 6.22036 5.81103 6.22036C5.46959 6.20723 5.15441 6.25976 4.8655 6.37795C4.58973 6.49614 4.36648 6.67342 4.19576 6.9098C4.03817 7.13305 3.95938 7.4154 3.95938 7.75683C3.95938 8.08514 4.03817 8.36092 4.19576 8.58417C4.36648 8.80742 4.59629 9.0044 4.8852 9.17512C5.17411 9.33271 5.51555 9.48373 5.90952 9.62818C6.30349 9.7595 6.73029 9.89739 7.18991 10.0418C7.87279 10.2782 8.50314 10.5606 9.08096 10.8889C9.65878 11.2041 10.1184 11.6177 10.4598 12.1299C10.8013 12.642 10.972 13.3183 10.972 14.1588C10.972 14.8811 10.7816 15.5508 10.4008 16.168C10.033 16.7853 9.48806 17.2843 8.76579 17.6651C8.04351 18.046 7.15052 18.2364 6.0868 18.2364ZM17.9169 18.2364C16.9189 18.2364 16.0324 18.0263 15.2576 17.606C14.496 17.1727 13.8984 16.5751 13.4651 15.8135C13.0449 15.0518 12.8347 14.1719 12.8347 13.1739C12.8347 12.1496 13.0449 11.2435 13.4651 10.4555C13.8853 9.66758 14.4763 9.05036 15.2379 8.60387C16.0127 8.15737 16.9057 7.93412 17.9169 7.93412C18.9018 7.93412 19.762 8.1508 20.4974 8.58417C21.2328 9.0044 21.8041 9.58222 22.2112 10.3176C22.6314 11.0399 22.8415 11.8607 22.8415 12.7799C22.8415 12.9112 22.8415 13.0623 22.8415 13.233C22.8415 13.3906 22.8284 13.5547 22.8021 13.7254H14.7258V12.1102H20.1625C20.1231 11.493 19.8933 11.0005 19.4731 10.6328C19.066 10.2651 18.5538 10.0812 17.9366 10.0812C17.477 10.0812 17.0568 10.1863 16.6759 10.3964C16.2951 10.5934 15.993 10.902 15.7698 11.3222C15.5597 11.7293 15.4546 12.2481 15.4546 12.8784V13.4497C15.4546 13.975 15.5531 14.4346 15.7501 14.8286C15.9602 15.2225 16.2491 15.5311 16.6168 15.7544C16.9977 15.9645 17.4245 16.0696 17.8972 16.0696C18.3831 16.0696 18.7837 15.9645 19.0988 15.7544C19.4271 15.5443 19.6766 15.2685 19.8474 14.9271H22.5657C22.3819 15.5443 22.0733 16.1024 21.6399 16.6014C21.2066 17.1004 20.6747 17.501 20.0443 17.803C19.414 18.0919 18.7049 18.2364 17.9169 18.2364ZM24.98 18V8.1705H27.3241L27.5211 9.78577C27.8363 9.23421 28.2697 8.78772 28.8212 8.44628C29.3859 8.10484 30.0622 7.93412 30.8501 7.93412C31.6643 7.93412 32.3538 8.10484 32.9185 8.44628C33.4832 8.78772 33.9165 9.29331 34.2186 9.96305C34.5206 10.6197 34.6716 11.4339 34.6716 12.4057V18H32.0124V12.6617C32.0124 11.8607 31.8482 11.2435 31.5199 10.8101C31.1916 10.3767 30.6729 10.16 29.9637 10.16C29.5172 10.16 29.1167 10.2717 28.7621 10.4949C28.4207 10.705 28.1449 11.0071 27.9348 11.401C27.7378 11.795 27.6393 12.2809 27.6393 12.8587V18H24.98ZM41.5707 18.2364C40.6646 18.2364 39.8504 18.0131 39.1281 17.5666C38.4058 17.1201 37.8346 16.5095 37.4143 15.7347C37.0072 14.9467 36.8037 14.0603 36.8037 13.0754C36.8037 12.0773 37.0072 11.1909 37.4143 10.4161C37.8346 9.64131 38.4058 9.03723 39.1281 8.60387C39.8635 8.15737 40.6843 7.93412 41.5904 7.93412C42.3127 7.93412 42.943 8.06544 43.4814 8.32809C44.0199 8.59073 44.4532 8.965 44.7815 9.4509V3.81716H47.4408V18H45.077L44.7815 16.6408C44.5845 16.9297 44.335 17.1989 44.033 17.4484C43.7441 17.6848 43.3961 17.8752 42.989 18.0197C42.5819 18.1642 42.1091 18.2364 41.5707 18.2364ZM42.1813 15.912C42.7066 15.912 43.1663 15.7938 43.5602 15.5574C43.9673 15.3079 44.2825 14.973 44.5058 14.5528C44.7421 14.1194 44.8603 13.627 44.8603 13.0754C44.8603 12.5238 44.7421 12.038 44.5058 11.6177C44.2825 11.1844 43.9673 10.8495 43.5602 10.6131C43.1663 10.3636 42.7001 10.2388 42.1616 10.2388C41.6626 10.2388 41.2096 10.3636 40.8025 10.6131C40.3954 10.8495 40.0736 11.1844 39.8372 11.6177C39.614 12.038 39.5024 12.5238 39.5024 13.0754C39.5024 13.627 39.614 14.1194 39.8372 14.5528C40.0736 14.973 40.3954 15.3079 40.8025 15.5574C41.2096 15.7938 41.6692 15.912 42.1813 15.912ZM54.7937 18.2364C53.7956 18.2364 52.9092 18.0263 52.1344 17.606C51.3727 17.1727 50.7752 16.5751 50.3419 15.8135C49.9216 15.0518 49.7115 14.1719 49.7115 13.1739C49.7115 12.1496 49.9216 11.2435 50.3419 10.4555C50.7621 9.66758 51.353 9.05036 52.1147 8.60387C52.8895 8.15737 53.7825 7.93412 54.7937 7.93412C55.7786 7.93412 56.6388 8.1508 57.3742 8.58417C58.1096 9.0044 58.6808 9.58222 59.0879 10.3176C59.5082 11.0399 59.7183 11.8607 59.7183 12.7799C59.7183 12.9112 59.7183 13.0623 59.7183 13.233C59.7183 13.3906 59.7052 13.5547 59.6789 13.7254H51.6026V12.1102H57.0393C56.9999 11.493 56.7701 11.0005 56.3499 10.6328C55.9428 10.2651 55.4306 10.0812 54.8134 10.0812C54.3538 10.0812 53.9335 10.1863 53.5527 10.3964C53.1719 10.5934 52.8698 10.902 52.6466 11.3222C52.4365 11.7293 52.3314 12.2481 52.3314 12.8784V13.4497C52.3314 13.975 52.4299 14.4346 52.6269 14.8286C52.837 15.2225 53.1259 15.5311 53.4936 15.7544C53.8744 15.9645 54.3012 16.0696 54.774 16.0696C55.2599 16.0696 55.6604 15.9645 55.9756 15.7544C56.3039 15.5443 56.5534 15.2685 56.7241 14.9271H59.4425C59.2587 15.5443 58.9501 16.1024 58.5167 16.6014C58.0833 17.1004 57.5515 17.501 56.9211 17.803C56.2908 18.0919 55.5816 18.2364 54.7937 18.2364Z" fill="#141414"/>
<path d="M61.9159 18V4.21112H64.5752V18H61.9159ZM63.216 2.95043C62.8746 2.95043 62.5791 2.83223 62.3296 2.59585C62.0932 2.34634 61.975 2.05087 61.975 1.70943C61.975 1.35486 62.0932 1.05938 62.3296 0.822999C62.5791 0.573486 62.8746 0.44873 63.216 0.44873C63.5837 0.44873 63.8857 0.573486 64.1221 0.822999C64.3716 1.05938 64.4964 1.35486 64.4964 1.70943C64.4964 2.05087 64.3716 2.34634 64.1221 2.59585C63.8857 2.83223 63.5837 2.95043 63.216 2.95043ZM71.224 18.2364C70.3441 18.2364 69.5693 18.0919 68.8996 17.803C68.243 17.5141 67.7177 17.1201 67.3237 16.6211C66.9298 16.109 66.6999 15.5311 66.6343 14.8877H69.2936C69.3592 15.124 69.4709 15.3473 69.6284 15.5574C69.786 15.7544 69.9961 15.912 70.2588 16.0302C70.5346 16.1484 70.8497 16.2074 71.2043 16.2074C71.5589 16.2074 71.8478 16.1615 72.071 16.0696C72.2943 15.9645 72.4584 15.8332 72.5635 15.6756C72.6686 15.5049 72.7211 15.3276 72.7211 15.1437C72.7211 14.868 72.6423 14.6644 72.4847 14.5331C72.3271 14.3886 72.0907 14.2704 71.7756 14.1785C71.4735 14.0866 71.1124 13.9947 70.6922 13.9027C70.2457 13.7977 69.7992 13.6795 69.3527 13.5482C68.9062 13.4168 68.4991 13.2461 68.1314 13.036C67.7768 12.8259 67.4879 12.5632 67.2646 12.2481C67.0545 11.9198 66.9495 11.5127 66.9495 11.0268C66.9495 10.4489 67.107 9.92366 67.4222 9.4509C67.7374 8.97813 68.197 8.61043 68.8011 8.34779C69.4052 8.07201 70.1275 7.93412 70.9679 7.93412C72.1498 7.93412 73.0888 8.20333 73.7848 8.74175C74.4939 9.28018 74.9076 10.0221 75.0258 10.9677H72.5241C72.4584 10.6525 72.2877 10.4096 72.0119 10.2388C71.7493 10.0681 71.3947 9.98275 70.9482 9.98275C70.4886 9.98275 70.134 10.0681 69.8845 10.2388C69.6481 10.3964 69.5299 10.6065 69.5299 10.8692C69.5299 11.053 69.6087 11.2172 69.7663 11.3616C69.937 11.493 70.1734 11.6112 70.4755 11.7162C70.7906 11.8081 71.1518 11.9066 71.5589 12.0117C72.2943 12.1693 72.9443 12.3466 73.509 12.5435C74.0868 12.7405 74.5465 13.0229 74.8879 13.3906C75.2293 13.7583 75.4001 14.2967 75.4001 15.0058C75.4001 15.6231 75.2293 16.1812 74.8879 16.6802C74.5596 17.1661 74.0803 17.5469 73.4499 17.8227C72.8327 18.0985 72.0907 18.2364 71.224 18.2364ZM69.3527 23.2595V21.7427H71.618C71.9463 21.7427 72.1958 21.6836 72.3665 21.5654C72.5372 21.4604 72.6226 21.2896 72.6226 21.0533C72.6226 20.8169 72.5372 20.6462 72.3665 20.5411C72.1958 20.436 71.9463 20.3835 71.618 20.3835H70.3967V17.9212H72.0513V19.0046C72.4847 18.9915 72.8918 19.0571 73.2726 19.2016C73.6666 19.3461 73.9818 19.5693 74.2182 19.8713C74.4677 20.1865 74.5924 20.5936 74.5924 21.0926C74.5924 21.5785 74.4677 21.9791 74.2182 22.2943C73.9818 22.6226 73.6666 22.8655 73.2726 23.0231C72.8918 23.1807 72.4716 23.2595 72.0119 23.2595H69.3527ZM77.6117 18V3.81716H80.271V18H77.6117ZM87.355 7.93412C88.353 7.93412 89.2329 8.1508 89.9946 8.58417C90.7694 9.0044 91.3735 9.59535 91.8068 10.357C92.2402 11.1056 92.4569 11.9854 92.4569 12.9966C92.4569 14.0078 92.2402 14.9139 91.8068 15.715C91.3866 16.5029 90.7956 17.1201 90.034 17.5666C89.2723 18.0131 88.3793 18.2364 87.355 18.2364C86.3832 18.2364 85.523 18.0263 84.7745 17.606C84.0391 17.1727 83.4613 16.5883 83.041 15.8529C82.6339 15.1175 82.4304 14.2901 82.4304 13.3709C82.4304 13.2264 82.4304 13.082 82.4304 12.9375C82.4435 12.7799 82.4567 12.6092 82.4698 12.4254H90.5461V14.0603H85.1291C85.1553 14.6775 85.3786 15.17 85.7988 15.5377C86.2191 15.9054 86.7312 16.0893 87.3353 16.0893C87.8081 16.0893 88.2283 15.9908 88.596 15.7938C88.9768 15.5837 89.2789 15.2685 89.5021 14.8483C89.7254 14.428 89.837 13.9093 89.837 13.2921V12.7208C89.837 12.1824 89.7319 11.7228 89.5218 11.3419C89.3117 10.948 89.0228 10.6459 88.6551 10.4358C88.2874 10.2126 87.8606 10.1009 87.3747 10.1009C86.9019 10.1009 86.5014 10.206 86.1731 10.4161C85.8448 10.6262 85.5953 10.902 85.4246 11.2435H82.7062C82.9032 10.6131 83.2183 10.0484 83.6517 9.54939C84.0851 9.05036 84.6169 8.65639 85.2473 8.36748C85.8776 8.07857 86.5802 7.93412 87.355 7.93412Z" fill="#3575E2"/>
</svg>
